<svg xmlns="http://www.w3.org/2000/svg" version="1.1" xmlns:xlink="http://www.w3.org/1999/xlink" xmlns:svgjs="http://svgjs.dev/svgjs" viewBox="0 0 1422 800" opacity="0.61"><g stroke-width="1" stroke="hsl(305, 77%, 40%)" fill="none" stroke-linecap="round"><line x1="106" y1="0" x2="0" y2="106" opacity="0.52"></line><line x1="212" y1="0" x2="106" y2="106" opacity="0.77"></line><line x1="318" y1="0" x2="212" y2="106" opacity="0.62"></line><line x1="318" y1="0" x2="424" y2="106" opacity="0.48"></line><line x1="530" y1="0" x2="424" y2="106" opacity="0.64"></line><line x1="636" y1="0" x2="530" y2="106" opacity="0.10"></line><line x1="742" y1="0" x2="636" y2="106" opacity="0.72"></line><line x1="742" y1="0" x2="848" y2="106" opacity="0.74"></line><line x1="848" y1="0" x2="954" y2="106" opacity="0.31"></line><line x1="954" y1="0" x2="1060" y2="106" opacity="0.11"></line><line x1="1060" y1="0" x2="1166" y2="106" opacity="0.47"></line><line x1="1272" y1="0" x2="1166" y2="106" opacity="0.16"></line><line x1="1378" y1="0" x2="1272" y2="106" opacity="0.90"></line><line x1="1484" y1="0" x2="1378" y2="106" opacity="0.47"></line><line x1="0" y1="106" x2="106" y2="212" opacity="0.42"></line><line x1="212" y1="106" x2="106" y2="212" opacity="0.30"></line><line x1="318" y1="106" x2="212" y2="212" opacity="0.63"></line><line x1="318" y1="106" x2="424" y2="212" opacity="0.94"></line><line x1="530" y1="106" x2="424" y2="212" opacity="0.46"></line><line x1="636" y1="106" x2="530" y2="212" opacity="0.33"></line><line x1="742" y1="106" x2="636" y2="212" opacity="0.27"></line><line x1="742" y1="106" x2="848" y2="212" opacity="0.55"></line><line x1="848" y1="106" x2="954" y2="212" opacity="0.82"></line><line x1="954" y1="106" x2="1060" y2="212" opacity="0.92"></line><line x1="1060" y1="106" x2="1166" y2="212" opacity="0.88"></line><line x1="1272" y1="106" x2="1166" y2="212" opacity="0.77"></line><line x1="1378" y1="106" x2="1272" y2="212" opacity="0.85"></line><line x1="1378" y1="106" x2="1484" y2="212" opacity="0.71"></line><line x1="106" y1="212" x2="0" y2="318" opacity="0.70"></line><line x1="212" y1="212" x2="106" y2="318" opacity="0.97"></line><line x1="318" y1="212" x2="212" y2="318" opacity="0.97"></line><line x1="318" y1="212" x2="424" y2="318" opacity="0.98"></line><line x1="424" y1="212" x2="530" y2="318" opacity="0.22"></line><line x1="530" y1="212" x2="636" y2="318" opacity="0.24"></line><line x1="636" y1="212" x2="742" y2="318" opacity="0.95"></line><line x1="742" y1="212" x2="848" y2="318" opacity="0.99"></line><line x1="848" y1="212" x2="954" y2="318" opacity="0.80"></line><line x1="1060" y1="212" x2="954" y2="318" opacity="0.11"></line><line x1="1166" y1="212" x2="1060" y2="318" opacity="0.07"></line><line x1="1166" y1="212" x2="1272" y2="318" opacity="0.45"></line><line x1="1378" y1="212" x2="1272" y2="318" opacity="0.64"></line><line x1="1484" y1="212" x2="1378" y2="318" opacity="0.73"></line><line x1="0" y1="318" x2="106" y2="424" opacity="0.46"></line><line x1="106" y1="318" x2="212" y2="424" opacity="0.27"></line><line x1="318" y1="318" x2="212" y2="424" opacity="0.92"></line><line x1="424" y1="318" x2="318" y2="424" opacity="0.88"></line><line x1="530" y1="318" x2="424" y2="424" opacity="0.83"></line><line x1="530" y1="318" x2="636" y2="424" opacity="0.43"></line><line x1="742" y1="318" x2="636" y2="424" opacity="0.85"></line><line x1="848" y1="318" x2="742" y2="424" opacity="0.69"></line><line x1="848" y1="318" x2="954" y2="424" opacity="0.21"></line><line x1="954" y1="318" x2="1060" y2="424" opacity="0.96"></line><line x1="1060" y1="318" x2="1166" y2="424" opacity="0.74"></line><line x1="1166" y1="318" x2="1272" y2="424" opacity="0.97"></line><line x1="1378" y1="318" x2="1272" y2="424" opacity="0.54"></line><line x1="1378" y1="318" x2="1484" y2="424" opacity="0.35"></line><line x1="0" y1="424" x2="106" y2="530" opacity="0.50"></line><line x1="212" y1="424" x2="106" y2="530" opacity="0.09"></line><line x1="212" y1="424" x2="318" y2="530" opacity="0.52"></line><line x1="318" y1="424" x2="424" y2="530" opacity="0.87"></line><line x1="424" y1="424" x2="530" y2="530" opacity="0.27"></line><line x1="636" y1="424" x2="530" y2="530" opacity="0.96"></line><line x1="636" y1="424" x2="742" y2="530" opacity="0.96"></line><line x1="848" y1="424" x2="742" y2="530" opacity="0.67"></line><line x1="954" y1="424" x2="848" y2="530" opacity="0.42"></line><line x1="1060" y1="424" x2="954" y2="530" opacity="0.48"></line><line x1="1166" y1="424" x2="1060" y2="530" opacity="0.99"></line><line x1="1166" y1="424" x2="1272" y2="530" opacity="0.27"></line><line x1="1378" y1="424" x2="1272" y2="530" opacity="0.10"></line><line x1="1378" y1="424" x2="1484" y2="530" opacity="0.81"></line><line x1="0" y1="530" x2="106" y2="636" opacity="0.70"></line><line x1="212" y1="530" x2="106" y2="636" opacity="0.42"></line><line x1="318" y1="530" x2="212" y2="636" opacity="0.87"></line><line x1="318" y1="530" x2="424" y2="636" opacity="0.83"></line><line x1="424" y1="530" x2="530" y2="636" opacity="0.57"></line><line x1="636" y1="530" x2="530" y2="636" opacity="0.98"></line><line x1="636" y1="530" x2="742" y2="636" opacity="0.74"></line><line x1="848" y1="530" x2="742" y2="636" opacity="0.11"></line><line x1="954" y1="530" x2="848" y2="636" opacity="0.41"></line><line x1="1060" y1="530" x2="954" y2="636" opacity="0.11"></line><line x1="1166" y1="530" x2="1060" y2="636" opacity="0.94"></line><line x1="1272" y1="530" x2="1166" y2="636" opacity="0.13"></line><line x1="1272" y1="530" x2="1378" y2="636" opacity="0.37"></line><line x1="1378" y1="530" x2="1484" y2="636" opacity="0.56"></line><line x1="0" y1="636" x2="106" y2="742" opacity="0.67"></line><line x1="212" y1="636" x2="106" y2="742" opacity="0.95"></line><line x1="212" y1="636" x2="318" y2="742" opacity="0.29"></line><line x1="424" y1="636" x2="318" y2="742" opacity="0.70"></line><line x1="530" y1="636" x2="424" y2="742" opacity="0.72"></line><line x1="636" y1="636" x2="530" y2="742" opacity="0.55"></line><line x1="636" y1="636" x2="742" y2="742" opacity="0.13"></line><line x1="848" y1="636" x2="742" y2="742" opacity="0.19"></line><line x1="848" y1="636" x2="954" y2="742" opacity="0.97"></line><line x1="1060" y1="636" x2="954" y2="742" opacity="0.53"></line><line x1="1060" y1="636" x2="1166" y2="742" opacity="0.81"></line><line x1="1166" y1="636" x2="1272" y2="742" opacity="0.72"></line><line x1="1378" y1="636" x2="1272" y2="742" opacity="0.28"></line><line x1="1378" y1="636" x2="1484" y2="742" opacity="0.65"></line><line x1="0" y1="742" x2="106" y2="848" opacity="0.28"></line><line x1="212" y1="742" x2="106" y2="848" opacity="0.87"></line><line x1="212" y1="742" x2="318" y2="848" opacity="0.99"></line><line x1="424" y1="742" x2="318" y2="848" opacity="0.44"></line><line x1="424" y1="742" x2="530" y2="848" opacity="0.58"></line><line x1="530" y1="742" x2="636" y2="848" opacity="0.19"></line><line x1="742" y1="742" x2="636" y2="848" opacity="0.62"></line><line x1="742" y1="742" x2="848" y2="848" opacity="0.81"></line><line x1="954" y1="742" x2="848" y2="848" opacity="0.91"></line><line x1="1060" y1="742" x2="954" y2="848" opacity="0.31"></line><line x1="1166" y1="742" x2="1060" y2="848" opacity="0.57"></line><line x1="1272" y1="742" x2="1166" y2="848" opacity="0.50"></line><line x1="1272" y1="742" x2="1378" y2="848" opacity="0.30"></line><line x1="1484" y1="742" x2="1378" y2="848" opacity="0.18"></line></g></svg>