<svg xmlns="http://www.w3.org/2000/svg" version="1.1" xmlns:xlink="http://www.w3.org/1999/xlink" xmlns:svgjs="http://svgjs.dev/svgjs" viewBox="0 0 1422 800" opacity="0.45"><g stroke-width="2" stroke="hsl(341, 100%, 85%)" fill="none" stroke-linecap="round"><line x1="150" y1="0" x2="0" y2="150" opacity="1.00"></line><line x1="300" y1="0" x2="150" y2="150" opacity="1.00"></line><line x1="450" y1="0" x2="300" y2="150" opacity="1.00"></line><line x1="600" y1="0" x2="450" y2="150" opacity="1.00"></line><line x1="750" y1="0" x2="600" y2="150" opacity="1.00"></line><line x1="750" y1="0" x2="900" y2="150" opacity="1.00"></line><line x1="900" y1="0" x2="1050" y2="150" opacity="1.00"></line><line x1="1050" y1="0" x2="1200" y2="150" opacity="1.00"></line><line x1="1350" y1="0" x2="1200" y2="150" opacity="1.00"></line><line x1="1500" y1="0" x2="1350" y2="150" opacity="1.00"></line><line x1="150" y1="150" x2="0" y2="300" opacity="0.82"></line><line x1="300" y1="150" x2="150" y2="300" opacity="0.82"></line><line x1="450" y1="150" x2="300" y2="300" opacity="0.82"></line><line x1="450" y1="150" x2="600" y2="300" opacity="0.82"></line><line x1="750" y1="150" x2="600" y2="300" opacity="0.82"></line><line x1="900" y1="150" x2="750" y2="300" opacity="0.82"></line><line x1="900" y1="150" x2="1050" y2="300" opacity="0.82"></line><line x1="1200" y1="150" x2="1050" y2="300" opacity="0.82"></line><line x1="1350" y1="150" x2="1200" y2="300" opacity="0.82"></line><line x1="1500" y1="150" x2="1350" y2="300" opacity="0.82"></line><line x1="0" y1="300" x2="150" y2="450" opacity="0.64"></line><line x1="150" y1="300" x2="300" y2="450" opacity="0.64"></line><line x1="450" y1="300" x2="300" y2="450" opacity="0.64"></line><line x1="600" y1="300" x2="450" y2="450" opacity="0.64"></line><line x1="600" y1="300" x2="750" y2="450" opacity="0.64"></line><line x1="750" y1="300" x2="900" y2="450" opacity="0.64"></line><line x1="900" y1="300" x2="1050" y2="450" opacity="0.64"></line><line x1="1050" y1="300" x2="1200" y2="450" opacity="0.64"></line><line x1="1350" y1="300" x2="1200" y2="450" opacity="0.64"></line><line x1="1350" y1="300" x2="1500" y2="450" opacity="0.64"></line><line x1="0" y1="450" x2="150" y2="600" opacity="0.47"></line><line x1="300" y1="450" x2="150" y2="600" opacity="0.47"></line><line x1="300" y1="450" x2="450" y2="600" opacity="0.47"></line><line x1="600" y1="450" x2="450" y2="600" opacity="0.47"></line><line x1="750" y1="450" x2="600" y2="600" opacity="0.47"></line><line x1="900" y1="450" x2="750" y2="600" opacity="0.47"></line><line x1="1050" y1="450" x2="900" y2="600" opacity="0.47"></line><line x1="1200" y1="450" x2="1050" y2="600" opacity="0.47"></line><line x1="1200" y1="450" x2="1350" y2="600" opacity="0.47"></line><line x1="1500" y1="450" x2="1350" y2="600" opacity="0.47"></line><line x1="0" y1="600" x2="150" y2="750" opacity="0.29"></line><line x1="300" y1="600" x2="150" y2="750" opacity="0.29"></line><line x1="450" y1="600" x2="300" y2="750" opacity="0.29"></line><line x1="450" y1="600" x2="600" y2="750" opacity="0.29"></line><line x1="600" y1="600" x2="750" y2="750" opacity="0.29"></line><line x1="900" y1="600" x2="750" y2="750" opacity="0.29"></line><line x1="900" y1="600" x2="1050" y2="750" opacity="0.29"></line><line x1="1200" y1="600" x2="1050" y2="750" opacity="0.29"></line><line x1="1350" y1="600" x2="1200" y2="750" opacity="0.29"></line><line x1="1350" y1="600" x2="1500" y2="750" opacity="0.29"></line><line x1="0" y1="750" x2="150" y2="900" opacity="0.11"></line><line x1="150" y1="750" x2="300" y2="900" opacity="0.11"></line><line x1="450" y1="750" x2="300" y2="900" opacity="0.11"></line><line x1="600" y1="750" x2="450" y2="900" opacity="0.11"></line><line x1="600" y1="750" x2="750" y2="900" opacity="0.11"></line><line x1="900" y1="750" x2="750" y2="900" opacity="0.11"></line><line x1="1050" y1="750" x2="900" y2="900" opacity="0.11"></line><line x1="1050" y1="750" x2="1200" y2="900" opacity="0.11"></line><line x1="1200" y1="750" x2="1350" y2="900" opacity="0.11"></line><line x1="1500" y1="750" x2="1350" y2="900" opacity="0.11"></line></g></svg>